<svg width="671" height="207" viewBox="0 0 671 207" fill="none" xmlns="http://www.w3.org/2000/svg">
<path d="M19.2 31.2C19.2 23.04 18.08 17.04 15.84 13.2C13.6 9.2 9.12 7.19999 2.4 7.19999H0V0H64.8C84.96 0 101.76 2.8 115.2 8.40001C128.8 14 135.6 25.2 135.6 42C135.6 49.36 132.64 56.32 126.72 62.88C120.96 69.28 112.8 73.84 102.24 76.56C129.28 79.28 142.8 91.92 142.8 114.48C142.8 131.12 136.16 142.64 122.88 149.04C109.6 155.28 92.64 158.4 72 158.4H19.2V31.2ZM68.4 71.76C78.8 71.76 86.96 69.36 92.88 64.56C98.96 59.6 102 51.68 102 40.8C102 29.76 98.4 21.84 91.2 17.04C84.16 12.08 75.36 9.60001 64.8 9.60001C60.48 9.60001 57.12 9.92 54.72 10.56L50.4 11.28V71.76H68.4ZM68.4 148.8C81.68 148.8 91.76 145.92 98.64 140.16C105.68 134.4 109.2 126.24 109.2 115.68C109.2 93.6 95.6 82.56 68.4 82.56H50.4V146.4C52.16 147.04 53.76 147.44 55.2 147.6C58.72 148.4 62.72 148.8 67.2 148.8H68.4Z" fill="white"/>
<path d="M242.293 48C245.173 50.08 247.253 52.4 248.533 54.96C249.813 57.36 250.453 58.64 250.453 58.8L238.213 68.16C237.093 66.72 235.653 65.2 233.893 63.6C230.373 60.4 226.293 58.8 221.653 58.8C212.373 58.8 205.253 61.28 200.293 66.24L200.773 69.84C201.093 72.72 201.253 75.36 201.253 77.76V158.4H170.053V76.8C170.053 68.64 168.933 62.64 166.693 58.8C164.613 54.8 160.213 52.8 153.493 52.8H151.093V45.6H174.853C180.293 45.6 184.533 46.32 187.573 47.76C190.773 49.04 193.253 51.28 195.013 54.48C203.653 46.96 213.733 43.2 225.253 43.2C232.133 43.2 237.813 44.8 242.293 48Z" fill="white"/>
<path d="M273.246 198C282.046 198 289.166 196.32 294.606 192.96C300.046 189.6 304.446 183.52 307.806 174.72L312.846 161.76L269.646 67.2C264.366 55.68 256.926 49.28 247.326 48V43.2H268.446C275.486 43.2 281.726 44.96 287.166 48.48C292.606 51.84 296.766 56.48 299.646 62.4L327.246 122.88L356.526 45.6H369.246L320.766 174C316.286 186.48 311.086 194.96 305.166 199.44C299.246 204.08 291.806 206.4 282.846 206.4H273.246V198Z" fill="white"/>
<path d="M419.394 160.8C406.434 160.8 396.354 157.92 389.154 152.16C382.114 146.24 378.594 138.32 378.594 128.4C378.594 120.4 380.434 113.76 384.114 108.48C387.954 103.2 394.594 99.2 404.034 96.48C413.474 93.76 426.594 92.4 443.394 92.4H446.994C446.994 78.48 445.074 68.64 441.234 62.88C437.394 56.96 431.714 54 424.194 54C417.954 54 412.834 55.52 408.834 58.56C404.834 61.6 401.954 67.28 400.194 75.6H386.994C386.994 70.16 387.314 65.52 387.954 61.68C388.754 57.84 390.434 54.48 392.994 51.6C397.954 46 409.954 43.2 428.994 43.2C444.994 43.2 457.154 47.44 465.474 55.92C473.954 64.24 478.194 76.8 478.194 93.6V158.4H457.794L449.394 147.6H448.194C446.754 149.84 444.514 152.08 441.474 154.32C436.034 158.64 428.674 160.8 419.394 160.8ZM426.594 148.8C429.954 148.8 432.834 148.16 435.234 146.88C437.634 145.44 439.954 143.52 442.194 141.12C444.274 138.88 445.874 136.24 446.994 133.2V103.2H443.394C432.034 103.2 423.794 105.28 418.674 109.44C413.554 113.44 410.994 119.76 410.994 128.4C410.994 134.96 412.354 140 415.074 143.52C417.794 147.04 421.634 148.8 426.594 148.8Z" fill="white"/>
<path d="M509.897 76.8C509.897 68.64 508.777 62.64 506.537 58.8C504.457 54.8 500.057 52.8 493.337 52.8H490.937V45.6H514.697C520.137 45.6 524.377 46.32 527.417 47.76C530.617 49.04 533.097 51.28 534.857 54.48C543.017 46.96 554.697 43.2 569.897 43.2C585.097 43.2 596.457 46.8 603.977 54C611.657 61.04 615.497 72.16 615.497 87.36V158.4H584.297V87.12C584.297 76.08 582.217 68 578.057 62.88C574.057 57.76 568.537 55.2 561.497 55.2C556.537 55.2 552.137 55.92 548.297 57.36C544.617 58.64 541.657 60.4 539.417 62.64L540.137 66C540.777 67.92 541.097 71.04 541.097 75.36V158.4H509.897V76.8Z" fill="white"/>
<path d="M655.624 161.76C650.984 161.76 647.384 160.48 644.824 157.92C642.264 155.2 640.984 151.6 640.984 147.12C640.984 142.64 642.264 139.12 644.824 136.56C647.384 133.84 650.984 132.48 655.624 132.48C660.264 132.48 663.864 133.84 666.424 136.56C668.984 139.12 670.264 142.64 670.264 147.12C670.264 151.6 668.984 155.2 666.424 157.92C663.864 160.48 660.264 161.76 655.624 161.76Z" fill="white"/>
</svg>
